<?xml version="1.0" encoding="utf-8"?>
<!-- Generator: Adobe Illustrator 19.2.0, SVG Export Plug-In . SVG Version: 6.00 Build 0)  -->
<svg version="1.1" id="Layer_1" xmlns="http://www.w3.org/2000/svg" xmlns:xlink="http://www.w3.org/1999/xlink" x="0px" y="0px"
	 viewBox="0 0 1728 342.8" style="enable-background:new 0 0 1728 342.8;" xml:space="preserve">
<style type="text/css">
	.st0{fill:#EC3926;}
	.st1{fill:#F89822;}
	.st2{fill:#579FD1;}
	.st3{fill:#193F6E;}
	.st4{fill:#434143;}
	.st5{fill:#008BCE;}
	.st6{fill:#F6F5F4;}
</style>
<g>
	<rect id="red_x5F_bar" x="13" y="295.7" class="st0" width="296.8" height="30.5"/>
	<rect id="orange_x5F_bar" x="309.8" y="295.7" class="st1" width="296.8" height="30.5"/>
	<rect id="blue_x5F_bar" x="606.6" y="295.7" class="st2" width="296.8" height="30.5"/>
	<rect id="navy_x5F_bar" x="903.4" y="295.7" class="st3" width="296.8" height="30.5"/>
	<rect id="black_x5F_bar" x="1200.2" y="295.7" class="st4" width="296.8" height="30.5"/>
	<path id="A" class="st3" d="M104.4,91.9h0.4l19.3,63.4H83.4L104.4,91.9z M78.4,58.4L16.8,220.5h43.9l12.7-34.6h60.9l12.1,34.6h47.4
		L131.4,58.4H78.4z"/>
	<rect id="I" x="203.6" y="58.4" class="st3" width="43.2" height="162.1"/>
	<path id="D" class="st3" d="M269.8,58.4h59c56.4,0,95.9,17.7,95.9,80.4c0,60.6-40.6,81.7-95.9,81.7h-59V58.4z M313,188.5h16.7
		c32.3,0,50.4-16.7,50.4-49s-18.8-49-50.4-49H313V188.5z"/>
	<path id="S" class="st3" d="M437.1,180.6c11.1,6.1,26.7,10.7,44.6,10.7c13.7,0,26.7-2.8,26.7-15.8c0-30.2-76.6-11.1-76.6-70.2
		c0-39,38.1-49.7,70.6-49.7c15.6,0,30.9,2.3,41.8,6l-2.8,33.5c-11.1-5.1-23.7-7.5-36-7.5c-11,0-29,1-29,15.1
		c0,26.3,76.6,8.6,76.6,67.1c0,42.1-35.3,53.4-71.3,53.4c-15.1,0-33.9-2.3-48.3-7L437.1,180.6z"/>
	<polygon id="_x2F_" class="st3" points="611.3,28.5 631.8,28.5 575.9,246.6 555.6,246.6 	"/>
	<polygon id="L" class="st3" points="641.8,58.4 665,58.4 665,200.1 732.8,200.1 732.8,220.5 641.8,220.5 	"/>
	<path id="i2" class="st3" d="M777.4,75.7h-24.6V51h24.6V75.7z M754.1,102.1H776v118.4h-21.8V102.1H754.1z"/>
	<path id="f" class="st3" d="M820.8,119.8h-27.9v-17.7h27.9V91.2c0-28.8,7.4-47.7,39.7-47.7c4.9,0.1,9.8,0.5,14.6,1.4l-1,17.7
		c-2.5-1-6.8-1.4-10.4-1.4c-18.8,0-21.1,12.1-21.1,28.1v12.8H874v17.7h-31.3v100.8h-21.9V119.8L820.8,119.8z"/>
	<path id="e1" class="st3" d="M978.6,215.7c-8.3,3-17.9,7.7-37.4,7.7c-42,0-61.3-25.6-61.3-64.1c0-35,22.1-59.9,55.5-59.9
		c39.5,0,52.3,28.8,52.3,66.9h-84.5c0,23.5,18.3,39.5,39,39.5c14.4,0,31.1-7.5,36.4-11.8V215.7L978.6,215.7z M964.4,149.9
		c0-18.1-10.7-33-29.5-33c-21.4,0-30.2,17.7-31.8,33H964.4z"/>
	<path id="c1" class="st3" d="M1121.7,85.1c-10.1-6-21.7-9.1-33.5-9c-37.4,0-62.3,27-62.3,63.4c0,38.1,27.4,63.4,61.1,63.4
		c11.6,0,27.1-3,35.3-7.9l1.4,22.5c-12.3,5.1-27.4,5.8-37,5.8c-51.3,0-85.5-33-85.5-84.5c0-49.9,36.3-83.1,85.7-83.1
		c12.5,0,24.9,1.8,36.4,7L1121.7,85.1z"/>
	<path id="y" class="st3" d="M1136.2,252.6c3.3,1.1,6.7,1.8,10.3,1.8c19.5,0,26-27,26-29.2c0-2.5-2.8-8.6-4.2-12.5l-40.2-110.5h23.9
		l31.8,98h0.4l32.5-98h22.1l-43.7,121c-8.1,22.8-16.7,49-45.5,49c-5,0-10-0.5-14.9-1.7L1136.2,252.6z"/>
	<path id="c2" class="st3" d="M1322.5,122.1c-7.5-3.2-15.6-5-23.7-5.1c-24.4,0-38.1,21.8-38.1,44.4c0,21.1,11.4,44.4,39.5,44.4
		c7.5,0,16.7-2.3,23.5-6.7l1.7,19.6c-9,4.2-19.5,4.9-27.4,4.9c-35.7,0-60.4-28.1-60.4-62c0-36,24.2-62,60.4-62
		c8.9,0,20.2,2.1,26.4,4.6L1322.5,122.1z"/>
	<rect id="l2" x="1348.2" y="46.4" class="st3" width="21.8" height="174.2"/>
	<path id="e2" class="st3" d="M1484.7,215.7c-8.3,3-17.9,7.7-37.4,7.7c-42,0-61.3-25.6-61.3-64.1c0-35,22.1-59.9,55.5-59.9
		c39.5,0,52.3,28.8,52.3,66.9h-84.5c0,23.5,18.3,39.5,39,39.5c14.4,0,31.1-7.5,36.4-11.8V215.7L1484.7,215.7z M1470.5,149.9
		c0-18.1-10.7-33-29.5-33c-21.4,0-30.2,17.7-31.8,33H1470.5z"/>
</g>
<g>
	<path class="st5" d="M1691.3,11.5H1557c-13.5,0-24.4,11-24.4,24.4v109.9c0,13.5,11,24.4,24.4,24.4v24.4c0,2.4,1.4,4.5,3.5,5.5
		c0.8,0.4,1.7,0.6,2.6,0.6c1.4,0,2.8-0.5,3.9-1.4l34.9-29.1h89.4c13.5,0,24.4-11,24.4-24.4V36C1715.7,22.5,1704.7,11.5,1691.3,11.5
		L1691.3,11.5z"/>
	<path class="st6" d="M1575.3,121.4h-12.2c-3.4,0-6.1-2.7-6.1-6.1s2.7-6.1,6.1-6.1h12.2c3.4,0,6.1-2.7,6.1-6.1s-2.7-6.1-6.1-6.1
		c-10.1,0-18.3-8.2-18.3-18.3s8.2-18.3,18.3-18.3h12.2c3.4,0,6.1,2.7,6.1,6.1s-2.7,6.1-6.1,6.1h-12.2c-3.4,0-6.1,2.7-6.1,6.1
		s2.7,6.1,6.1,6.1c10.1,0,18.3,8.2,18.3,18.3S1585.4,121.4,1575.3,121.4L1575.3,121.4z"/>
	<path class="st6" d="M1672.9,121.4h-12.2c-3.4,0-6.1-2.7-6.1-6.1s2.7-6.1,6.1-6.1h12.2c3.4,0,6.1-2.7,6.1-6.1s-2.7-6.1-6.1-6.1
		c-10.1,0-18.3-8.2-18.3-18.3s8.2-18.3,18.3-18.3h12.2c3.4,0,6.1,2.7,6.1,6.1s-2.7,6.1-6.1,6.1h-12.2c-3.4,0-6.1,2.7-6.1,6.1
		s2.7,6.1,6.1,6.1c10.1,0,18.3,8.2,18.3,18.3S1683,121.4,1672.9,121.4L1672.9,121.4z"/>
	<path class="st6" d="M1636.3,121.4c-3.4,0-6.1-2.7-6.1-6.1v-23l-0.6,1.3c-2.1,4.1-8.9,4.1-10.9,0l-0.6-1.3v23
		c0,3.4-2.7,6.1-6.1,6.1s-6.1-2.7-6.1-6.1V66.5c0-2.8,2-5.3,4.7-5.9c2.7-0.7,5.6,0.7,6.9,3.2l6.8,13.5l6.8-13.5
		c1.3-2.6,4.1-3.9,6.9-3.2c2.8,0.6,4.7,3.1,4.7,5.9v48.8C1642.4,118.7,1639.7,121.4,1636.3,121.4L1636.3,121.4z"/>
</g>
</svg>
